#!OML:ASF E:\Style4\Style4.ASF
:FULLY-SPECIFIED
:DEGREES
2092
root -0.119705 17.7724 -2.51063 0.396945 -5.11251 1.34514
lowerback 9.17058 -0.529043 -2.36075
upperback 5.30607 -0.895614 -0.8954
thorax 0.381623 -0.490526 0.478705
lowerneck -1.11458 0.499929 -6.77916
upperneck 7.39152 0.654627 3.74699
head 2.53783 0.244245 2.42722
rclavicle -1.23246e-014 -1.21259e-014
rhumerus -62.7847 21.2765 -92.3475
rradius 107.022
rwrist -42.351
rhand -22.5241 28.2009
rfingers 7.12502
rthumb 3.90272 -1.74309
lclavicle -1.23246e-014 -1.21259e-014
lhumerus 16.0529 -10.5369 65.5429
lradius 72.3589
lwrist 44.6995
lhand -18.7371 26.8399
lfingers 7.12502
lthumb 7.55895 56.6848
rfemur -16.7558 3.16129 16.9457
rtibia 32.6996
rfoot -15.9091 -10.5819
rtoes -9.67838
lfemur -12.5458 1.81799 -20.949
ltibia 31.432
lfoot -19.9489 12.1588
ltoes -12.4214
2093
root -0.125411 17.766 -2.51019 0.424607 -4.80649 1.31218
lowerback 9.14865 -0.488543 -2.43573
upperback 5.35035 -0.846406 -1.05244
thorax 0.437341 -0.465945 0.353929
lowerneck -1.25864 0.444301 -6.88537
upperneck 7.48065 0.564432 4.1729
head 2.60265 0.208514 2.59286
rclavicle -7.85199e-015 -1.47101e-014
rhumerus -62.7717 21.3149 -92.3036
rradius 108.23
rwrist -42.3869
rhand -22.6231 28.277
rfingers 7.12502
rthumb 3.80707 -1.66873
lclavicle -7.85199e-015 -1.47101e-014
lhumerus 15.3146 -11.0701 65.7617
lradius 72.3705
lwrist 44.1986
lhand -18.6827 26.6351
lfingers 7.12502
lthumb 7.61142 56.4782
rfemur -16.8094 2.97102 16.9973
rtibia 32.877
rfoot -16.0561 -10.6663
rtoes -9.51996
lfemur -12.7296 1.69347 -20.892
ltibia 31.6718
lfoot -19.8952 12.0018
ltoes -12.4131
2094
root -0.132411 17.7575 -2.51129 0.383134 -4.59471 1.3115
lowerback 9.21656 -0.408279 -2.57148
upperback 5.40022 -0.752133 -1.20802
thorax 0.449932 -0.41989 0.261842
lowerneck -1.22514 0.397664 -6.97671
upperneck 7.38957 0.477961 4.57232
head 2.57422 0.175053 2.74264
rclavicle 9.93923e-015 1.03368e-014
rhumerus -62.6831 21.4199 -92.2186
rradius 109.395
rwrist -42.535
rhand -22.6697 28.4302
rfingers 7.12502
rthumb 3.76206 -1.51634
lclavicle 9.93923e-015 1.03368e-014
lhumerus 14.4844 -11.6832 65.9337
lradius 72.4361
lwrist 43.7459
lhand -18.6925 26.3669
lfingers 7.12502
lthumb 7.60194 56.2102
rfemur -16.8163 2.83415 17.0207
rtibia 33.0551
rfoot -16.1722 -10.7083
rtoes -9.42427
lfemur -12.8643 1.63629 -20.8605
ltibia 31.9765
lfoot -20.0352 11.8492
ltoes -12.2257
2095
root -0.140044 17.7479 -2.51476 0.342001 -4.46733 1.148
lowerback 9.33604 -0.309973 -2.54792
upperback 5.43872 -0.624137 -1.33713
thorax 0.419874 -0.353387 0.105234
lowerneck -1.16443 0.364947 -6.957
upperneck 7.33349 0.408086 4.90993
head 2.55069 0.150237 2.85164
rclavicle -5.06901e-015 -1.70955e-014
rhumerus -62.5563 21.5665 -92.1335
rradius 110.557
rwrist -42.6043
rhand -22.6976 28.6468
rfingers 7.12502
rthumb 3.73511 -1.30025
lclavicle -5.06901e-015 -1.70955e-014
lhumerus 13.5328 -12.3419 66.1267
lradius 72.5106
lwrist 43.3207
lhand -18.7122 25.7355
lfingers 7.12502
lthumb 7.58296 55.5796
rfemur -16.859 2.81356 17.2383
rtibia 33.2674
rfoot -16.2451 -10.8393
rtoes -9.55239
lfemur -13.0221 1.65562 -20.6396
ltibia 32.3039
lfoot -20.2072 11.7324
ltoes -12.419
2096
root -0.147259 17.7358 -2.51784 0.311238 -4.32968 0.952847
lowerback 9.40744 -0.218932 -2.49347
upperback 5.49537 -0.50102 -1.44425
thorax 0.435679 -0.289477 -0.0464256
lowerneck -1.05351 0.326621 -6.93826
upperneck 7.20761 0.33124 5.22235
head 2.49507 0.12102 2.95066
rclavicle 9.54166e-015 2.94201e-014
rhumerus -62.2804 21.6882 -91.8918
rradius 111.703
rwrist -42.6237
rhand -22.5237 28.7179
rfingers 7.12502
rthumb 3.90309 -1.22615
lclavicle 9.54166e-015 2.94201e-014
lhumerus 12.6148 -12.8988 66.3858
lradius 72.582
lwrist 42.793
lhand -18.438 25.2133
lfingers 7.12502
lthumb 7.84759 55.0476
rfemur -16.9321 2.74536 17.4881
rtibia 33.5164
rfoot -16.3544 -10.9268
rtoes -9.57415
lfemur -13.2048 1.70901 -20.382
ltibia 32.6461
lfoot -20.2524 11.5339
ltoes -12.423
2097
root -0.153861 17.7233 -2.52035 0.266435 -4.14399 0.953319
lowerback 9.46121 -0.153709 -2.6424
upperback 5.56478 -0.426863 -1.57032
thorax 0.478011 -0.25461 -0.099734
lowerneck -1.04781 0.286512 -7.03673
upperneck 7.1402 0.260221 5.56569
head 2.47964 0.0926831 3.08552
rclavicle -3.97569e-016 -3.1408e-014
rhumerus -61.9415 21.9319 -91.6373
rradius 112.877
rwrist -42.5488
rhand -22.7025 28.6094
rfingers 7.12502
rthumb 3.73039 -1.33775
lclavicle -3.97569e-016 -3.1408e-014
lhumerus 11.6863 -13.3414 66.7067
lradius 72.7006
lwrist 42.2455
lhand -18.0378 25.1522
lfingers 7.12502
lthumb 8.23387 54.9718
rfemur -17.0188 2.64275 17.5093
rtibia 33.8032
rfoot -16.547 -10.9411
rtoes -9.39832
lfemur -13.3643 1.63197 -20.3549
ltibia 32.9678
lfoot -20.2986 11.3646
ltoes -12.1975
2098
root -0.159583 17.712 -2.52495 0.170828 -3.91537 1.01896
lowerback 9.59296 -0.0984758 -2.83808
upperback 5.67073 -0.371798 -1.70728
thorax 0.516657 -0.230465 -0.136383
lowerneck -1.19684 0.244909 -7.10972
upperneck 7.16157 0.19608 5.87958
head 2.52218 0.0689229 3.20949
rclavicle -2.98177e-015 5.56597e-015
rhumerus -61.4898 22.2585 -91.4276
rradius 113.998
rwrist -42.6184
rhand -22.9941 28.7324
rfingers 7.12502
rthumb 3.44883 -1.21946
lclavicle -2.98177e-015 5.56597e-015
lhumerus 10.7949 -13.8203 67.0052
lradius 72.8593
lwrist 41.8114
lhand -17.8439 25.341
lfingers 7.12502
lthumb 8.42096 55.1531
rfemur -17.0619 2.47305 17.459
rtibia 34.1161
rfoot -16.743 -10.9712
rtoes -9.63113
lfemur -13.4597 1.5308 -20.4026
ltibia 33.2604
lfoot -20.381 11.2048
ltoes -12.1453
2099
root -0.164506 17.7014 -2.52842 0.0942239 -3.72618 1.11711
lowerback 9.69967 -0.016813 -3.06442
upperback 5.77151 -0.283552 -1.83988
thorax 0.563412 -0.190715 -0.154642
lowerneck -1.2769 0.19275 -7.25135
upperneck 7.10014 0.115559 6.2357
head 2.52674 0.0361075 3.35952
rclavicle -7.55382e-015 -1.66979e-014
rhumerus -60.9811 22.6194 -91.2072
rradius 115.092
rwrist -42.8329
rhand -23.2707 29.0138
rfingers 7.12502
rthumb 3.18169 -0.942179
lclavicle -7.55382e-015 -1.66979e-014
lhumerus 9.92095 -14.3831 67.2819
lradius 73.0206
lwrist 41.4489
lhand -17.9063 25.5888
lfingers 7.12502
lthumb 8.36076 55.4033
rfemur -17.136 2.36136 17.3629
rtibia 34.4382
rfoot -16.875 -11.0682
rtoes -9.60986
lfemur -13.5625 1.55399 -20.4888
ltibia 33.5259
lfoot -20.4213 11.0485
ltoes -12.4135
2100
root -0.168928 17.6908 -2.52937 0.0152746 -3.58163 1.08502
lowerback 9.76751 0.109697 -3.11568
upperback 5.87088 -0.120352 -1.94782
thorax 0.627129 -0.109904 -0.25247
lowerneck -1.27746 0.0997054 -7.36758
upperneck 7.06325 -0.0257362 6.58124
head 2.52984 -0.02782 3.49995
rclavicle 6.95746e-015 1.11319e-014
rhumerus -60.4135 22.8641 -90.9151
rradius 116.202
rwrist -43.0891
rhand -23.4371 29.1816
rfingers 7.12502
rthumb 3.02101 -0.776791
lclavicle 6.95746e-015 1.11319e-014
lhumerus 9.06437 -15.1017 67.5911
lradius 73.1471
lwrist 41.2937
lhand -18.1617 25.5991
lfingers 7.12502
lthumb 8.11429 55.4233
rfemur -17.1655 2.29151 17.4137
rtibia 34.6975
rfoot -16.9988 -11.1633
rtoes -9.28329
lfemur -13.669 1.64486 -20.4266
ltibia 33.8403
lfoot -20.4927 10.9104
ltoes -13.0623
2101
root -0.174582 17.679 -2.53025 -0.103112 -3.40305 1.02095
lowerback 9.87649 0.21325 -3.17244
upperback 5.9415 0.00929074 -2.03505
thorax 0.639458 -0.0455291 -0.322905
lowerneck -1.18978 0.0208393 -7.28916
upperneck 7.06671 -0.151845 6.764
head 2.52584 -0.0848942 3.54556
rclavicle 7.15625e-015 4.85035e-014
rhumerus -59.8023 23.1465 -90.586
rradius 117.353
rwrist -43.4619
rhand -23.4145 29.0783
rfingers 7.12502
rthumb 3.04285 -0.879695
lclavicle 7.15625e-015 4.85035e-014
lhumerus 8.0069 -15.7799 67.927
lradius 73.3576
lwrist 41.1839
lhand -18.063 25.485
lfingers 7.12502
lthumb 8.20955 55.3055
rfemur -17.1157 2.21664 17.5154
rtibia 34.9052
rfoot -17.1128 -11.2805
rtoes -9.36929
lfemur -13.7647 1.65716 -20.3225
ltibia 34.2077
lfoot -20.6097 10.8382
ltoes -13.7585
2102
root -0.182698 17.6661 -2.53065 -0.287518 -3.27414 0.660587
lowerback 10.11 0.270775 -3.01032
upperback 6.00353 0.0901079 -1.9921
thorax 0.574883 -0.0014162 -0.377396
lowerneck -1.13397 -0.00532466 -7.32728
upperneck 7.08442 -0.200624 6.93345
head 2.52755 -0.106686 3.61163
rclavicle 5.96354e-015 3.97569e-015
rhumerus -59.1709 23.6152 -90.17
rradius 118.527
rwrist -43.845
rhand -23.2965 28.8689
rfingers 7.12502
rthumb 3.15672 -1.08743
lclavicle 5.96354e-015 3.97569e-015
lhumerus 6.7214 -16.1336 68.3964
lradius 73.6079
lwrist 40.4941
lhand -17.333 25.3348
lfingers 7.12502
lthumb 8.91402 55.1265
rfemur -16.9614 2.32157 17.9697
rtibia 35.0922
rfoot -17.2687 -11.4845
rtoes -9.54721
lfemur -13.7879 1.72257 -19.8709
ltibia 34.6121
lfoot -20.708 10.5724
ltoes -13.3054
2103
root -0.188007 17.6529 -2.53176 -0.447869 -3.1988 0.398987
lowerback 10.2362 0.378795 -2.90074
upperback 6.14081 0.241153 -1.95683
thorax 0.647065 0.0748048 -0.417196
lowerneck -1.16167 -0.0957109 -7.51983
upperneck 7.04255 -0.327972 7.19085
head 2.53433 -0.16784 3.73773
rclavicle 1.31198e-014 3.18055e-014
rhumerus -58.2573 23.9456 -89.5244
rradius 119.621
rwrist -44.2402
rhand -23.0703 28.6848
rfingers 7.12502
rthumb 3.37526 -1.26822
lclavicle 1.31198e-014 3.18055e-014
lhumerus 5.63897 -16.491 68.9371
lradius 73.8303
lwrist 39.6923
lhand -16.9016 25.2953
lfingers 7.12502
lthumb 9.33033 55.0688
rfemur -16.8823 2.39653 18.3029
rtibia 35.3108
rfoot -17.4247 -11.6155
rtoes -9.77611
lfemur -13.8359 1.76579 -19.5381
ltibia 35.0022
lfoot -20.8481 10.3403
ltoes -12.5476
2104
root -0.190623 17.6402 -2.53385 -0.478937 -3.04302 0.433686
lowerback 10.1705 0.593577 -2.91776
upperback 6.27673 0.531253 -2.09692
thorax 0.822616 0.219729 -0.57929
lowerneck -1.11757 -0.322543 -7.43722
upperneck 6.912 -0.650587 7.47295
head 2.51228 -0.318979 3.81235
rclavicle -1.27222e-014 1.90833e-014
rhumerus -57.2164 23.7462 -88.8043
rradius 120.741
rwrist -44.6897
rhand -22.8273 28.4535
rfingers 7.12502
rthumb 3.60984 -1.49563
lclavicle -1.27222e-014 1.90833e-014
lhumerus 4.8144 -17.3664 69.3822
lradius 74.0973
lwrist 39.2698
lhand -16.9593 25.145
lfingers 7.12502
lthumb 9.27465 54.921
rfemur -16.983 2.24354 18.2727
rtibia 35.5764
rfoot -17.521 -11.6566
rtoes -9.89116
lfemur -14.0311 1.73705 -19.5656
ltibia 35.3656
lfoot -20.9724 10.2477
ltoes -12.7098
